<svg width="99" height="39" viewBox="0 0 99 39" fill="none" xmlns="http://www.w3.org/2000/svg">
<g id="Arrow 05" clip-path="url(#clip0_101_462)">
<path id="Arrow 05_2" d="M2.33426e-05 15.123C5.57708 23.1055 29.8414 31.0512 46.1621 30.5525C63.8031 30.0535 73.4636 26.5629 92.2712 13.7275C92.2165 15.1328 92.0508 16.2765 92.0776 17.3197C92.0583 18.5099 92.0498 19.7683 92.3016 20.9154C92.3557 21.256 93.0632 21.7721 93.4807 21.7756C93.8982 21.779 94.5002 21.1945 94.5816 20.8324C95.2821 17.3691 95.847 13.9274 96.4688 10.4067C96.6345 9.26304 96.098 8.51032 94.8916 8.35287C90.3127 7.96322 85.7231 7.50545 81.0872 7.19468C80.0381 7.15192 78.8613 7.61826 77.5058 7.83369C79.0557 10.5902 81.4416 9.86186 83.323 10.331C85.2829 10.8576 87.3243 11.022 89.8264 11.4623C84.8069 16.1707 79.4923 19.4595 73.6981 21.9166C52.4896 31.0134 31.4197 29.6132 10.6747 20.2004C7.97485 18.9535 5.43505 17.4018 2.79215 16.0759C1.99245 15.8539 1.26052 15.621 2.33426e-05 15.123Z" fill="#DF6951"/>
</g>
<defs>
<clipPath id="clip0_101_462">
<rect width="96.1304" height="23.346" fill="white" transform="matrix(0.987606 -0.156951 -0.156951 -0.987606 3.66418 38.1797)"/>
</clipPath>
</defs>
</svg>
