<svg width="16" height="16" viewBox="0 0 16 16" fill="none" xmlns="http://www.w3.org/2000/svg">
<g id="building 1">
<g id="Group">
<g id="Group_2">
<g id="Group_3">
<path id="Vector" d="M0.266665 15.4667H1.86667V6.66667C1.86667 6.5194 1.98607 6.4 2.13333 6.4H5.86667V0.266667C5.86667 0.1194 5.98607 0 6.13333 0H13.0667C13.2139 0 13.3333 0.1194 13.3333 0.266667V15.4667H15.7333C15.8806 15.4667 16 15.5861 16 15.7333C16 15.8806 15.8806 16 15.7333 16H0.266665C0.119399 16 0 15.8806 0 15.7333C0 15.5861 0.119399 15.4667 0.266665 15.4667ZM10.4 15.4667H11.4667V13.0667C11.4667 12.9194 11.3473 12.8 11.2 12.8H10.6667C10.5194 12.8 10.4 12.9194 10.4 13.0667V15.4667ZM9.33333 6.66667V15.4667H9.86667V13.0667C9.86667 12.6248 10.2248 12.2667 10.6667 12.2667H11.2C11.6418 12.2667 12 12.6248 12 13.0667V15.4667H12.8V0.533333H6.4V6.4H9.06667C9.21393 6.4 9.33333 6.5194 9.33333 6.66667ZM2.4 15.4667H8.8V6.93333H2.4V15.4667Z" fill="#84829A"/>
<path id="Vector_2" d="M7.46658 3.7334H9.06659C9.21385 3.7334 9.33325 3.8528 9.33325 4.00007V5.60007C9.33325 5.74733 9.21385 5.86673 9.06659 5.86673H7.46658C7.31932 5.86673 7.19992 5.74733 7.19992 5.60007V4.00007C7.19992 3.8528 7.31932 3.7334 7.46658 3.7334ZM7.73325 5.3334H8.79992V4.26673H7.73325V5.3334Z" fill="#84829A"/>
<path id="Vector_3" d="M7.46658 1.06641H9.06659C9.21385 1.06641 9.33325 1.18581 9.33325 1.33307V2.93307C9.33325 3.08034 9.21385 3.19974 9.06659 3.19974H7.46658C7.31932 3.19974 7.19992 3.08034 7.19992 2.93307V1.33307C7.19992 1.18581 7.31932 1.06641 7.46658 1.06641ZM7.73325 2.66641H8.79992V1.59974H7.73325V2.66641Z" fill="#84829A"/>
<path id="Vector_4" d="M10.1333 3.7334H11.7333C11.8806 3.7334 12 3.8528 12 4.00007V5.60007C12 5.74733 11.8806 5.86673 11.7333 5.86673H10.1333C9.98607 5.86673 9.86667 5.74733 9.86667 5.60007V4.00007C9.86667 3.8528 9.98607 3.7334 10.1333 3.7334ZM10.4 5.3334H11.4667V4.26673H10.4V5.3334Z" fill="#84829A"/>
<path id="Vector_5" d="M10.1333 1.06641H11.7333C11.8806 1.06641 12 1.18581 12 1.33307V2.93307C12 3.08034 11.8806 3.19974 11.7333 3.19974H10.1333C9.98607 3.19974 9.86667 3.08034 9.86667 2.93307V1.33307C9.86667 1.18581 9.98607 1.06641 10.1333 1.06641ZM10.4 2.66641H11.4667V1.59974H10.4V2.66641Z" fill="#84829A"/>
<path id="Vector_6" d="M10.1333 6.40039H11.7333C11.8806 6.40039 12 6.51979 12 6.66706V8.26706C12 8.41432 11.8806 8.53372 11.7333 8.53372H10.1333C9.98607 8.53372 9.86667 8.41432 9.86667 8.26706V6.66706C9.86667 6.51979 9.98607 6.40039 10.1333 6.40039ZM10.4 8.00039H11.4667V6.93372H10.4V8.00039Z" fill="#84829A"/>
<path id="Vector_7" d="M10.1333 9.06641H11.7333C11.8806 9.06641 12 9.18581 12 9.33307V10.9331C12 11.0803 11.8806 11.1997 11.7333 11.1997H10.1333C9.98607 11.1997 9.86667 11.0803 9.86667 10.9331V9.33307C9.86667 9.18581 9.98607 9.06641 10.1333 9.06641ZM10.4 10.6664H11.4667V9.59974H10.4V10.6664Z" fill="#84829A"/>
<path id="Vector_8" d="M5.06659 12.2661H3.46659C3.31932 12.2661 3.19992 12.1467 3.19992 11.9995V10.3995C3.19992 10.2522 3.31932 10.1328 3.46659 10.1328H5.06659C5.21385 10.1328 5.33325 10.2522 5.33325 10.3995V11.9995C5.33325 12.1467 5.21385 12.2661 5.06659 12.2661ZM4.79992 10.6661H3.73325V11.7328H4.79992V10.6661Z" fill="#84829A"/>
<path id="Vector_9" d="M5.06659 9.60013H3.46659C3.31932 9.60013 3.19992 9.48073 3.19992 9.33346V7.73346C3.19992 7.5862 3.31932 7.4668 3.46659 7.4668H5.06659C5.21385 7.4668 5.33325 7.5862 5.33325 7.73346V9.33346C5.33325 9.48073 5.21385 9.60013 5.06659 9.60013ZM4.79992 8.00013H3.73325V9.0668H4.79992V8.00013Z" fill="#84829A"/>
<path id="Vector_10" d="M5.06659 14.9331H3.46659C3.31932 14.9331 3.19992 14.8137 3.19992 14.6665V13.0665C3.19992 12.9192 3.31932 12.7998 3.46659 12.7998H5.06659C5.21385 12.7998 5.33325 12.9192 5.33325 13.0665V14.6665C5.33325 14.8137 5.21385 14.9331 5.06659 14.9331ZM4.79992 13.3331H3.73325V14.3998H4.79992V13.3331Z" fill="#84829A"/>
<path id="Vector_11" d="M7.73333 12.2661H6.13333C5.98607 12.2661 5.86667 12.1467 5.86667 11.9995V10.3995C5.86667 10.2522 5.98607 10.1328 6.13333 10.1328H7.73333C7.8806 10.1328 8 10.2522 8 10.3995V11.9995C8 12.1467 7.8806 12.2661 7.73333 12.2661ZM7.46667 10.6661H6.4V11.7328H7.46667V10.6661Z" fill="#84829A"/>
<path id="Vector_12" d="M7.73333 9.60013H6.13333C5.98607 9.60013 5.86667 9.48073 5.86667 9.33346V7.73346C5.86667 7.5862 5.98607 7.4668 6.13333 7.4668H7.73333C7.8806 7.4668 8 7.5862 8 7.73346V9.33346C8 9.48073 7.8806 9.60013 7.73333 9.60013ZM7.46667 8.00013H6.4V9.0668H7.46667V8.00013Z" fill="#84829A"/>
<path id="Vector_13" d="M7.73333 14.9331H6.13333C5.98607 14.9331 5.86667 14.8137 5.86667 14.6665V13.0665C5.86667 12.9192 5.98607 12.7998 6.13333 12.7998H7.73333C7.8806 12.7998 8 12.9192 8 13.0665V14.6665C8 14.8137 7.8806 14.9331 7.73333 14.9331ZM7.46667 13.3331H6.4V14.3998H7.46667V13.3331Z" fill="#84829A"/>
</g>
</g>
</g>
</g>
</svg>
