<svg width="47" height="48" viewBox="0 0 47 48" fill="none" xmlns="http://www.w3.org/2000/svg">
<g id="Group 12">
<rect id="Rectangle 21" width="47" height="48" rx="13" fill="#F15A2B"/>
<g id="water-sport 1">
<path id="Vector" d="M32.8184 31.9291C32.3683 31.9383 31.9261 31.8095 31.5513 31.56C31.2723 31.3777 30.9463 31.2806 30.613 31.2806C30.2798 31.2806 29.9537 31.3777 29.6748 31.56C29.2961 31.801 28.8566 31.9291 28.4078 31.9291C27.959 31.9291 27.5194 31.801 27.1408 31.56C26.8618 31.3775 26.5357 31.2803 26.2024 31.2803C25.869 31.2803 25.5429 31.3775 25.264 31.56C24.8853 31.801 24.4458 31.9291 23.997 31.9291C23.5481 31.9291 23.1086 31.801 22.73 31.56C22.4512 31.3776 22.1253 31.2805 21.7922 31.2805C21.4591 31.2805 21.1332 31.3776 20.8544 31.56C20.5112 31.7881 20.1106 31.9149 19.6985 31.9258L19.6758 31.2772C19.9802 31.27 20.2757 31.1737 20.5259 31.0002C20.9044 30.7592 21.3438 30.6312 21.7925 30.6312C22.2413 30.6312 22.6807 30.7592 23.0592 31.0002C23.3381 31.1826 23.6642 31.2797 23.9975 31.2797C24.3307 31.2797 24.6568 31.1826 24.9357 31.0002C25.3144 30.759 25.7541 30.6309 26.203 30.6309C26.652 30.6309 27.0917 30.759 27.4703 31.0002C27.7493 31.1826 28.0753 31.2797 28.4086 31.2797C28.7419 31.2797 29.0679 31.1826 29.3469 31.0002C29.7255 30.7592 30.165 30.6312 30.6138 30.6312C31.0627 30.6312 31.5022 30.7592 31.8808 31.0002C32.1604 31.183 32.4873 31.2804 32.8214 31.2804C33.1554 31.2804 33.4823 31.183 33.7619 31.0002C34.1363 30.7514 34.5777 30.6229 35.0271 30.6318V31.2804C34.6925 31.2713 34.3637 31.3691 34.0885 31.5597C33.7128 31.8095 33.2696 31.9384 32.8184 31.9291Z" fill="white"/>
<path id="Vector_2" d="M15.1784 31.9287C14.7284 31.938 14.2863 31.8092 13.9116 31.5596C13.6365 31.3689 13.3077 31.2709 12.973 31.2801V30.6314C13.4232 30.6221 13.8654 30.7509 14.2402 31.0005C14.5151 31.1913 14.8439 31.2892 15.1784 31.2801C15.5131 31.2893 15.842 31.1912 16.117 31.0002C16.491 30.7507 16.9325 30.622 17.3819 30.6314C17.8204 30.6216 18.2517 30.7444 18.6192 30.9839L18.2919 31.5437C18.0235 31.3631 17.7053 31.2709 17.3819 31.2801C17.0486 31.2711 16.7211 31.3688 16.4472 31.559C16.0721 31.8093 15.6292 31.9383 15.1784 31.9287Z" fill="white"/>
<path id="Vector_3" d="M32.8194 29.6581C32.3689 29.6673 31.9265 29.5386 31.5513 29.2891C31.2721 29.1066 30.9458 29.0094 30.6122 29.0094C30.2787 29.0094 29.9523 29.1066 29.6731 29.2891C29.2946 29.53 28.8551 29.658 28.4063 29.658C27.9576 29.658 27.5181 29.53 27.1395 29.2891C26.8607 29.1067 26.5347 29.0096 26.2016 29.0096C25.8684 29.0096 25.5425 29.1067 25.2636 29.2891C24.8851 29.5301 24.4456 29.6582 23.9968 29.6582C23.548 29.6582 23.1085 29.5301 22.73 29.2891C22.4512 29.1067 22.1252 29.0096 21.7921 29.0096C21.4589 29.0096 21.1329 29.1067 20.8541 29.2891C20.4795 29.5387 20.0374 29.6675 19.5873 29.6581C19.1372 29.6675 18.6951 29.5387 18.3205 29.2891C18.0456 29.0983 17.717 29.0004 17.3825 29.0095C17.0482 29.0004 16.7197 29.0984 16.4449 29.2891C16.0709 29.5384 15.6295 29.6672 15.18 29.6581C14.7299 29.6675 14.2877 29.5387 13.9129 29.2891C13.6375 29.0979 13.3081 29 12.973 29.0095V28.3608C13.4231 28.3515 13.8652 28.4804 14.2398 28.7299C14.515 28.9207 14.8438 29.0186 15.1784 29.0095C15.5128 29.0186 15.8413 28.9206 16.1161 28.7299C16.4901 28.4806 16.9315 28.3518 17.3809 28.3608C17.8313 28.3513 18.2738 28.4801 18.6487 28.7299C18.9237 28.9207 19.2524 29.0187 19.587 29.0095C19.9215 29.0187 20.2503 28.9207 20.5252 28.7299C20.9038 28.4888 21.3433 28.3608 21.7921 28.3608C22.2408 28.3608 22.6803 28.4888 23.0589 28.7299C23.3377 28.9123 23.6637 29.0094 23.997 29.0094C24.3302 29.0094 24.6562 28.9123 24.9351 28.7299C25.3136 28.4888 25.7531 28.3608 26.2019 28.3608C26.6507 28.3608 27.0902 28.4888 27.4687 28.7299C27.7476 28.9123 28.0736 29.0094 28.4068 29.0094C28.74 29.0094 29.066 28.9123 29.3449 28.7299C29.7238 28.4889 30.1636 28.3609 30.6127 28.3609C31.0618 28.3609 31.5016 28.4889 31.8805 28.7299C32.1599 28.9123 32.4863 29.0093 32.8199 29.0093C33.1535 29.0093 33.4799 28.9123 33.7593 28.7299C34.1344 28.4805 34.5767 28.3517 35.0271 28.3608V29.0095C34.6918 29 34.3622 29.098 34.0865 29.2891C33.7116 29.5384 33.2695 29.6671 32.8194 29.6581Z" fill="white"/>
<path id="Vector_4" d="M32.8184 27.3885C32.3683 27.3977 31.9261 27.2689 31.5513 27.0194C31.2762 26.8287 30.9473 26.7307 30.6127 26.7398C30.3671 26.7314 30.1232 26.7838 29.9028 26.8923L29.6167 26.3085C29.9263 26.1567 30.268 26.0819 30.6127 26.0902C31.0634 26.081 31.5061 26.2102 31.8811 26.4603C32.1608 26.6431 32.4876 26.7404 32.8217 26.7404C33.1558 26.7404 33.4826 26.6431 33.7622 26.4603C34.1364 26.2114 34.5777 26.0826 35.0271 26.0912V26.7398C34.6925 26.7307 34.3637 26.8285 34.0885 27.0191C33.7128 27.2689 33.2696 27.3978 32.8184 27.3885Z" fill="white"/>
<path id="Vector_5" d="M28.4044 27.3885C27.9549 27.3979 27.5135 27.2692 27.1395 27.0197C26.8605 26.8373 26.5344 26.7401 26.2011 26.7401C25.8677 26.7401 25.5416 26.8373 25.2626 27.0197C24.884 27.2608 24.4445 27.3888 23.9957 27.3888C23.5468 27.3888 23.1073 27.2608 22.7287 27.0197C22.4497 26.8374 22.1237 26.7402 21.7904 26.7402C21.4572 26.7402 21.1311 26.8374 20.8522 27.0197C20.4776 27.2689 20.0358 27.3976 19.586 27.3885C19.1359 27.3978 18.6938 27.269 18.3192 27.0194C18.0441 26.8287 17.7152 26.7307 17.3806 26.7398C17.0473 26.7308 16.7198 26.8286 16.4459 27.0187C16.0712 27.2688 15.6288 27.3978 15.1784 27.3885C14.7284 27.3978 14.2863 27.269 13.9116 27.0194C13.6365 26.8287 13.3077 26.7307 12.973 26.7398V26.0912C13.4232 26.0818 13.8654 26.2106 14.2402 26.4603C14.5151 26.6511 14.8439 26.749 15.1784 26.7398C15.5131 26.749 15.842 26.651 16.117 26.4599C16.491 26.2105 16.9325 26.0817 17.3819 26.0912C17.8319 26.0819 18.2741 26.2107 18.6487 26.4603C18.9237 26.6511 19.2524 26.749 19.587 26.7398C19.9216 26.7489 20.2504 26.651 20.5256 26.4603C20.9042 26.2192 21.3437 26.0912 21.7925 26.0912C22.2414 26.0912 22.6809 26.2192 23.0595 26.4603C23.3385 26.6426 23.6645 26.7397 23.9978 26.7397C24.3311 26.7397 24.6571 26.6426 24.9361 26.4603C25.3147 26.219 25.7544 26.0909 26.2033 26.0909C26.6523 26.0909 27.092 26.219 27.4706 26.4603C27.7564 26.6524 28.0952 26.7501 28.4394 26.7395C28.4644 26.7398 28.4895 26.7385 28.5143 26.7356L28.6006 27.3784C28.5355 27.386 28.4699 27.3894 28.4044 27.3885Z" fill="white"/>
<path id="Vector_6" d="M32.8194 25.1181C32.3689 25.1273 31.9265 24.9985 31.5513 24.749C31.2721 24.5666 30.9458 24.4694 30.6122 24.4694C30.2787 24.4694 29.9523 24.5666 29.6731 24.749C29.2946 24.99 28.8551 25.118 28.4063 25.118C27.9576 25.118 27.5181 24.99 27.1395 24.749C26.8607 24.5667 26.5347 24.4696 26.2016 24.4696C25.8684 24.4696 25.5425 24.5667 25.2636 24.749C24.8851 24.9901 24.4456 25.1181 23.9968 25.1181C23.548 25.1181 23.1085 24.9901 22.73 24.749C22.4512 24.5667 22.1252 24.4696 21.7921 24.4696C21.4589 24.4696 21.1329 24.5667 20.8541 24.749C20.4795 24.9986 20.0374 25.1275 19.5873 25.1181C19.1372 25.1275 18.6951 24.9986 18.3205 24.749C18.0456 24.5583 17.717 24.4603 17.3825 24.4695C17.0482 24.4604 16.7197 24.5583 16.4449 24.749C16.0709 24.9984 15.6295 25.1272 15.18 25.1181C14.7299 25.1275 14.2877 24.9986 13.9129 24.749C13.6375 24.5579 13.3081 24.4599 12.973 24.4695V23.8208C13.4231 23.8115 13.8652 23.9403 14.2398 24.1899C14.515 24.3806 14.8438 24.4786 15.1784 24.4695C15.5128 24.4785 15.8413 24.3806 16.1161 24.1899C16.4901 23.9406 16.9315 23.8118 17.3809 23.8208C17.8313 23.8112 18.2738 23.9401 18.6487 24.1899C18.9237 24.3807 19.2524 24.4786 19.587 24.4695C19.9215 24.4786 20.2503 24.3807 20.5252 24.1899C20.9038 23.9488 21.3433 23.8207 21.7921 23.8207C22.2408 23.8207 22.6803 23.9488 23.0589 24.1899C23.3377 24.3723 23.6637 24.4694 23.997 24.4694C24.3302 24.4694 24.6562 24.3723 24.9351 24.1899C25.3136 23.9488 25.7531 23.8207 26.2019 23.8207C26.6507 23.8207 27.0902 23.9488 27.4687 24.1899C27.7476 24.3723 28.0736 24.4694 28.4068 24.4694C28.74 24.4694 29.066 24.3723 29.3449 24.1899C29.7238 23.9489 30.1636 23.8209 30.6127 23.8209C31.0618 23.8209 31.5016 23.9489 31.8805 24.1899C32.1599 24.3722 32.4863 24.4693 32.8199 24.4693C33.1535 24.4693 33.4799 24.3722 33.7593 24.1899C34.1344 23.9405 34.5767 23.8117 35.0271 23.8208V24.4695C34.6918 24.46 34.3622 24.5579 34.0865 24.749C33.7116 24.9983 33.2695 25.1271 32.8194 25.1181Z" fill="white"/>
<path id="Vector_7" d="M28.1978 24.8428L27.5858 24.6281C27.7434 24.1753 27.8078 23.6952 27.7751 23.2168C27.7423 22.7384 27.6132 22.2716 27.3954 21.8444L25.1676 17.482C25.1456 17.4389 25.1335 17.3914 25.1322 17.3431C25.131 17.2947 25.1405 17.2467 25.1602 17.2025C25.1799 17.1583 25.2092 17.1191 25.246 17.0877C25.2828 17.0563 25.3262 17.0336 25.3729 17.0211L29.8126 15.8373C29.9572 15.7995 30.0811 15.706 30.1573 15.5773C30.2334 15.4486 30.2556 15.2951 30.2191 15.15C30.1826 15.005 30.0903 14.8803 29.9623 14.803C29.8343 14.7257 29.6809 14.702 29.5356 14.7372L24.1622 16.0215C24.0473 16.0487 23.9402 16.1019 23.8492 16.1771C23.7583 16.2523 23.6858 16.3474 23.6375 16.4551C23.5891 16.5627 23.5663 16.6801 23.5706 16.7981C23.5749 16.916 23.6063 17.0314 23.6624 17.1353L25.2581 20.0996C25.2986 20.1749 25.3076 20.2632 25.2833 20.3452C25.259 20.4272 25.2033 20.4963 25.1284 20.5374L23.0689 21.6726L22.7559 21.1043L24.5339 20.1242L23.0919 17.4427C22.9888 17.2513 22.931 17.0387 22.9232 16.8214C22.9153 16.6041 22.9575 16.3879 23.0465 16.1895C23.1356 15.9911 23.269 15.8159 23.4366 15.6773C23.6042 15.5387 23.8014 15.4406 24.013 15.3904L29.3838 14.1064C29.6965 14.0274 30.0277 14.0758 30.3047 14.241C30.5816 14.4063 30.7816 14.6748 30.8606 14.9874C30.9396 15.3001 30.8912 15.6313 30.726 15.9083C30.5607 16.1852 30.2923 16.3852 29.9796 16.4642L25.9275 17.5442L27.9733 21.549C28.2309 22.0545 28.3836 22.6069 28.4222 23.173C28.4608 23.739 28.3844 24.307 28.1978 24.8428Z" fill="white"/>
<path id="Vector_8" d="M21.6224 21.7343L17.6811 23.906L17.994 24.4738L21.9352 22.3021L21.6224 21.7343Z" fill="white"/>
<path id="Vector_9" d="M31.1352 22.6852C30.6541 22.6852 30.1838 22.5425 29.7838 22.2752C29.3838 22.008 29.072 21.6281 28.8879 21.1836C28.7038 20.7391 28.6556 20.25 28.7495 19.7782C28.8434 19.3064 29.075 18.8729 29.4152 18.5328C29.7554 18.1926 30.1888 17.9609 30.6606 17.8671C31.1325 17.7732 31.6216 17.8214 32.066 18.0055C32.5105 18.1896 32.8904 18.5013 33.1577 18.9014C33.425 19.3014 33.5676 19.7717 33.5676 20.2527C33.5669 20.8977 33.3104 21.516 32.8544 21.972C32.3984 22.428 31.7801 22.6845 31.1352 22.6852ZM31.1352 18.469C30.7824 18.469 30.4375 18.5736 30.1442 18.7696C29.8508 18.9656 29.6222 19.2442 29.4872 19.5701C29.3522 19.8961 29.3169 20.2547 29.3857 20.6007C29.4545 20.9468 29.6244 21.2646 29.8739 21.5141C30.1233 21.7635 30.4412 21.9334 30.7872 22.0023C31.1332 22.0711 31.4919 22.0358 31.8178 21.9007C32.1438 21.7657 32.4223 21.5371 32.6183 21.2438C32.8144 20.9504 32.919 20.6055 32.919 20.2527C32.9184 19.7798 32.7302 19.3265 32.3959 18.9921C32.0615 18.6577 31.6081 18.4696 31.1352 18.469Z" fill="white"/>
</g>
</g>
</svg>
