<svg width="14" height="14" viewBox="0 0 14 14" fill="none" xmlns="http://www.w3.org/2000/svg">
<g id="leaf 1" clip-path="url(#clip0_101_589)">
<g id="Group">
<g id="Group_2">
<path id="Vector" d="M13.6544 0.150827C13.2855 0.0428744 4.26244 -0.855475 1.09361 3.42567C-0.309832 5.32223 -0.330914 7.9221 1.02328 11.1525C0.679764 11.8655 0.379038 12.6166 0.133956 13.4091C0.0594447 13.6499 0.194222 13.9052 0.434764 13.9795C0.479608 13.9934 0.525026 14 0.56987 14C0.764338 14 0.944888 13.8744 1.00515 13.6787C3.42037 5.87028 11.2693 2.09267 13.6762 1.13835C13.9105 1.0454 14.2235 0.317405 13.6544 0.150827Z" fill="#84829A"/>
</g>
</g>
<g id="Group_3">
<g id="Group_4">
<path id="Vector_2" d="M2.47192 12.1296C3.77832 12.6777 5.08453 12.9586 6.29922 12.9586C7.39103 12.9586 8.40923 12.7341 9.28663 12.2789C11.0525 11.3629 12.1315 9.61069 12.4071 7.2112C12.6878 4.76578 13.0373 3.23404 13.3289 2.297C10.7336 3.49416 5.16878 6.59728 2.47192 12.1296Z" fill="#84829A"/>
</g>
</g>
</g>
<defs>
<clipPath id="clip0_101_589">
<rect width="14" height="14" fill="white"/>
</clipPath>
</defs>
</svg>
